<svg xmlns="http://www.w3.org/2000/svg" width="205.076" height="35.896" viewBox="0 0 205.076 35.896">
  <g id="Group_1150" data-name="Group 1150" transform="translate(-0.6 -0.1)">
    <g id="Group_427" data-name="Group 427" transform="translate(52.211 9.904)">
      <path id="Path_1" data-name="Path 1" d="M2047.835,421.417h-1.768v3.894l-1.7.507v-4.4H2037.8v-1.371l5.085-9.946h1.91l-4.221,8.259c-.236.456-.557,1.041-.968,1.748a4.861,4.861,0,0,1,.859-.084h3.9v-.638c0-.5.035-1.16.111-1.981l.22-3.083,1.371-.418v6.123h1.768v1.391Z" transform="translate(-2037.8 -409.517)" fill="#fff"/>
      <path id="Path_2" data-name="Path 2" d="M2594.453,406.662a7.567,7.567,0,0,1-4.22,1.239,5.441,5.441,0,0,1-4.73-2.452,9.1,9.1,0,0,1-1.5-5.325,8.925,8.925,0,0,1,1.591-5.325,5.593,5.593,0,0,1,4.773-2.5,6.094,6.094,0,0,1,3.823,1.239l-.973,1.17a4.844,4.844,0,0,0-2.873-.927,3.844,3.844,0,0,0-3.734,2.6,10.28,10.28,0,0,0-.641,4.015,8.653,8.653,0,0,0,.486,3.2,4.071,4.071,0,0,0,4.066,2.779,5.015,5.015,0,0,0,2.961-.973Z" transform="translate(-2570.162 -392.168)" fill="#fff"/>
      <path id="Path_3" data-name="Path 3" d="M3379.464,398.3a4.208,4.208,0,0,1-2.1,3.646,6,6,0,0,1-3.4.927,9.033,9.033,0,0,1-4.862-1.371l.8-1.414a6.8,6.8,0,0,0,4.066,1.3,4.1,4.1,0,0,0,2.409-.664,2.475,2.475,0,0,0,1.082-2.166q0-2.01-2.718-2.83l-1.525-.459a6.273,6.273,0,0,1-2.7-1.348,3.448,3.448,0,0,1-.95-2.475,3.977,3.977,0,0,1,1.459-3.25,5.258,5.258,0,0,1,3.448-1.1,7.984,7.984,0,0,1,4.576,1.459l-.8,1.3a6.853,6.853,0,0,0-3.691-1.282,3.613,3.613,0,0,0-2.121.575,2.23,2.23,0,0,0-.907,1.923q0,1.68,2.521,2.475l1.745.552Q3379.462,395.27,3379.464,398.3Z" transform="translate(-3335.373 -387.1)" fill="#fff"/>
      <path id="Path_4" data-name="Path 4" d="M3896.935,400.1l-.111,1.525h-4.112V415.26h-1.745V401.625H3886.9V400.1Z" transform="translate(-3840.054 -399.771)" fill="#fff"/>
      <path id="Path_5" data-name="Path 5" d="M4427.337,416.04h-2.278a28.088,28.088,0,0,0-3.869-5.857,2.363,2.363,0,0,0-1.68-.973v6.83H4417.7V400.9h3.537a6.039,6.039,0,0,1,3.823.973,3.9,3.9,0,0,1,1.5,3.182,4.209,4.209,0,0,1-1.082,3,3.851,3.851,0,0,1-2.939,1.15h-.221a8.974,8.974,0,0,1,1.525,1.7c.193.281.6.869,1.239,1.768Q4425.678,413.52,4427.337,416.04Zm-2.652-11.005a2.525,2.525,0,0,0-.414-1.381,2.241,2.241,0,0,0-1.082-.917,5.347,5.347,0,0,0-1.917-.309h-1.761v5.657h1.626a4.212,4.212,0,0,0,2.586-.641A2.831,2.831,0,0,0,4424.685,405.035Z" transform="translate(-4357.407 -400.55)" fill="#fff"/>
      <path id="Path_6" data-name="Path 6" d="M4918.444,415.26h-2.073l-1.426-4.664h-5.64l-1.464,4.664H4906l5.062-15.16h2.364Zm-3.966-6.144-2.3-7.387-.734,2.2q-.293.95-1.64,5.186Z" transform="translate(-4833.336 -399.771)" fill="#fff"/>
      <path id="Path_7" data-name="Path 7" d="M5418.734,400.1l-.11,1.525h-4.112V415.26h-1.745V401.625H5408.7V400.1Z" transform="translate(-5323.3 -399.771)" fill="#fff"/>
      <path id="Path_8" data-name="Path 8" d="M5948.507,419.451H5940V404.4h8.287l-.243,1.479h-6.209v4.928h5.193v1.568h-5.193v5.5h6.675v1.573Z" transform="translate(-5841.14 -403.962)" fill="#fff"/>
      <path id="Path_9" data-name="Path 9" d="M6381.81,409.333a7.663,7.663,0,0,1-4.266,1.145,5.825,5.825,0,0,1-5-2.3A8.957,8.957,0,0,1,6371,402.7q0-4.287,2.344-6.364a5.785,5.785,0,0,1,3.955-1.437,6.163,6.163,0,0,1,4.154,1.5l-.818,1.127a5.993,5.993,0,0,0-3.294-1.15,3.636,3.636,0,0,0-3.779,2.564,11.466,11.466,0,0,0-.6,3.846,8.17,8.17,0,0,0,1.062,4.6,3.471,3.471,0,0,0,1.637,1.216,5.42,5.42,0,0,0,2.034.4,4.462,4.462,0,0,0,2.41-.6v-4.644h-3.052l-.354-1.48h5.1v7.053Z" transform="translate(-6261.222 -394.702)" fill="#fff"/>
      <path id="Path_10" data-name="Path 10" d="M6972.568,415.26H6970.8V400.1h1.769Z" transform="translate(-6845.826 -399.771)" fill="#fff"/>
      <path id="Path_11" data-name="Path 11" d="M7239.31,419.451h-8.51V404.4h8.289l-.243,1.479h-6.209v4.928h5.193v1.568h-5.193v5.5h6.675v1.573Z" transform="translate(-7099.239 -403.962)" fill="#fff"/>
      <path id="Path_12" data-name="Path 12" d="M7696.664,398.3a4.21,4.21,0,0,1-2.1,3.646,6,6,0,0,1-3.4.927,9.031,9.031,0,0,1-4.861-1.371l.795-1.414a6.8,6.8,0,0,0,4.066,1.3,4.108,4.108,0,0,0,2.41-.664,2.476,2.476,0,0,0,1.081-2.166q0-2.01-2.719-2.83l-1.525-.459a6.265,6.265,0,0,1-2.694-1.348,3.445,3.445,0,0,1-.95-2.475,3.976,3.976,0,0,1,1.459-3.25,5.256,5.256,0,0,1,3.447-1.1,7.987,7.987,0,0,1,4.576,1.459l-.8,1.3a6.85,6.85,0,0,0-3.691-1.282,3.612,3.612,0,0,0-2.12.575,2.23,2.23,0,0,0-.907,1.923q0,1.68,2.521,2.475l1.745.552Q7696.662,395.27,7696.664,398.3Z" transform="translate(-7543.199 -387.1)" fill="#fff"/>
    </g>
    <path id="Path_13" data-name="Path 13" d="M.6.1V36H36.5V.1ZM35.511,28.4c-.276-.02-.55-.053-.821-.1-.177-.028-.355-.063-.529-.1-.149-.03-.3-.066-.443-.1a10.374,10.374,0,0,1-1.659-.58c-.22-.1-.438-.205-.651-.319-.155-.081-.3-.167-.453-.256l-.1-.058c-.046-.028-.091-.058-.137-.089-.068-.043-.137-.086-.2-.129-.109-.073-.215-.147-.322-.225l-.01-.008c-.063-.046-.124-.094-.187-.142-.046-.033-.091-.068-.134-.1-.023-.018-.043-.035-.063-.053a10.7,10.7,0,0,1-.839-.747A10.378,10.378,0,0,1,34.7,7.789c.269-.043.54-.073.813-.1V28.4ZM8.193,35.008c.02-.276.053-.55.1-.821A10.439,10.439,0,0,1,11.2,28.457c.094-.094.19-.187.289-.279,0,0,0,0,.005,0a10.51,10.51,0,0,1,1.594-1.216l.013-.008c.111-.068.223-.134.334-.2l.023-.013c.109-.063.22-.122.334-.18l.023-.013c.111-.058.225-.114.339-.167l.051-.023.322-.144c.028-.013.056-.023.084-.033.1-.041.2-.081.3-.117l.109-.038.279-.1c.043-.015.086-.025.129-.041.089-.028.175-.056.263-.081l.22-.058.177-.048c.091-.023.185-.043.279-.063.043-.01.084-.02.127-.028.137-.028.274-.053.413-.073a10.295,10.295,0,0,1,3.283,0,10.417,10.417,0,0,1,8.621,8.659c.043.269.073.54.1.813H8.193ZM28.9,1.086c-.02.276-.053.55-.1.821,0,.008,0,.015-.005.025-.02.132-.046.263-.071.393-.008.041-.018.081-.028.122-.02.1-.041.2-.063.291-.01.041-.023.081-.033.124-.025.1-.048.19-.076.284-.01.035-.023.073-.033.109-.028.1-.058.2-.091.291-.01.033-.023.063-.033.1-.033.1-.068.2-.106.3l-.03.079c-.041.1-.081.205-.124.309-.01.023-.02.043-.028.063-.046.106-.091.21-.142.314-.008.018-.018.033-.025.051-.051.109-.1.215-.16.322-.005.013-.013.023-.018.035-.058.111-.117.22-.18.329l-.013.02c-.066.111-.132.223-.2.334l-.008.013c-.071.111-.144.223-.218.334,0,0,0,0,0,.005a10.343,10.343,0,0,1-1.31,1.566h0a10.328,10.328,0,0,1-5.622,2.845,10.295,10.295,0,0,1-3.283,0A10.429,10.429,0,0,1,8.289,1.9c-.043-.269-.073-.54-.1-.813Zm-26.5,6.7a10.425,10.425,0,0,1,5.807,2.992h0a10.508,10.508,0,0,1,1.018,1.206h0c.076.106.152.215.225.324,0,0,0,.005.005.008.071.106.139.215.208.324a.063.063,0,0,1,.01.018c.066.106.127.213.19.322l.018.033c.058.1.114.21.17.317l.023.048c.051.1.1.205.152.309l.03.068c.046.1.089.2.132.3.013.028.023.058.035.089.038.094.076.19.111.286.015.038.028.076.041.114.033.089.063.177.094.266l.046.144c.025.081.051.162.073.243.018.058.033.119.048.18s.038.142.056.215.035.155.051.233c.013.056.025.111.038.17.028.134.051.271.073.408a10.295,10.295,0,0,1,0,3.283A10.429,10.429,0,0,1,2.4,28.307c-.185.03-.37.053-.557.073-.084.008-.17.015-.256.02V7.693C1.862,7.713,2.135,7.743,2.406,7.786Z" transform="translate(0 0)" fill="#fff"/>
  </g>
</svg>
